{"title":"Dogma.2.The.Idiots.1998.DAN.DVDRiP.XViD.ENGSUB.Zen_Bud","uid":5812602,"size":1473664726,"categoryP":"video","categoryS":"movies","magnet":"?xt=urn:btih:5d4ab330849ccbd01b9babda22f7e3d092e5b390&amp;dn=Dogma.2.The.Idiots.1998.DAN.DVDRiP.XViD.ENGSUB.Zen_Bud&amp;tr=udp%3A%2F%2Ftracker.openbittorrent.com%3A80&amp;tr=udp%3A%2F%2Fopen.demonii.com%3A1337&amp;tr=udp%3A%2F%2Ftracker.coppersurfer.tk%3A6969&amp;tr=udp%3A%2F%2Fexodus.desync.com%3A6969","seeders":2,"leechers":0,"uploader":"Zen_Bud","files":-1,"time":1283704457,"description":"\n*** Dogma.2.The.Idiots.1998.DAN.DVDRiP.XViD.ENGSUB.Zen_Bud ***\n\n\nFormat                           : AVI\nFile size                        : 1.37 GiB\nDuration                         : 1h 49mn\nOverall bit rate                 : 1 794 Kbps\n\nVideo\n\nFormat                           : MPEG-4 Visual\nCodec ID/Hint                    : XviD\nDuration                         : 1h 49mn\nBit rate                         : 1 667 Kbps\nWidth                            : 720 pixels\nHeight                           : 480 pixels\nDisplay aspect ratio             : 4:3\nStream size                      : 1.28 GiB (93%)\nWriting library                  : XviD 1.1.2 (UTC 2006-11-01)\n\nAudio\n\nFormat                           : MPEG Audio\nCodec ID/Hint                    : MP3\nDuration                         : 1h 49mn\nBit rate                         : 112 Kbps\nChannel(s)                       : 2 channels\nSampling rate                    : 48.0 KHz\nStream size                      : 87.8 MiB (6%)\nLanguage.........................: Danish\n\n\nText #1\nLanguage.........................: English\n\n &lt;a href=&quot;\nhttp://en.wikipedia.org/wiki/The_Idiots&quot; rel=&quot;nofollow&quot; target=&quot;_NEW&quot;&gt;\nhttp://en.wikipedia.org/wiki/The_Idiots&lt;/a&gt;","torrent":{"xt":"urn:btih:5d4ab330849ccbd01b9babda22f7e3d092e5b390","amp;dn":"Dogma.2.The.Idiots.1998.DAN.DVDRiP.XViD.ENGSUB.Zen_Bud","amp;tr":["udp%3A%2F%2Ftracker.openbittorrent.com%3A80","udp%3A%2F%2Fopen.demonii.com%3A1337","udp%3A%2F%2Ftracker.coppersurfer.tk%3A6969","udp%3A%2F%2Fexodus.desync.com%3A6969"],"infoHash":"5d4ab330849ccbd01b9babda22f7e3d092e5b390","infoHashBuffer":{"type":"Buffer","data":[93,74,179,48,132,156,203,208,27,155,171,218,34,247,227,208,146,229,179,144]},"announce":[],"urlList":[]}}